
<svg version="1.0" xmlns="http://www.w3.org/2000/svg"
 width="1000.000000pt" height="1000.000000pt" viewBox="0 0 1000.000000 1000.000000"
 preserveAspectRatio="xMidYMid meet" fill="none">

<g transform="translate(0.000000,1000.000000) scale(0.100000,-0.100000)"
fill="#000000" stroke="none">
<path fill-rule="evenodd" clip-rule="evenodd" d="M3541 7698 c14 -26 14 -84 0 -121 -6 -15 -788 -1311 -1737 -2878
-949 -1568 -1724 -2853 -1721 -2855 3 -3 621 387 1373 866 l1369 872 33 102
c55 169 181 410 544 1036 189 327 459 795 599 1039 277 485 306 525 425 588
121 64 93 62 1042 63 764 1 864 -1 891 -15 46 -23 65 -58 56 -102 -9 -50 -24
-78 -160 -297 -64 -104 -115 -190 -113 -191 5 -5 2020 1364 2051 1392 86 83
88 213 4 302 -135 143 -294 190 -711 211 -108 6 -1008 10 -2074 10 l-1883 0
12 -22z" fill="#222" stroke="#222" stroke-widht="0.5" stroke-linecap="round" stroke-linejoin="round"/>
<path fill-rule="evenodd" clip-rule="evenodd" d="M6380 5377 l-3385 -2242 1639 -3 1639 -2 51 23 c28 13 69 42 92 65
28 28 254 414 756 1294 l717 1253 741 730 c408 402 832 819 943 927 111 108
200 197 197 197 -3 -1 -1528 -1010 -3390 -2242z" fill="#22222" stroke="#222" stroke-widht="0.5" stroke-linecap="round" stroke-linejoin="round"/>
</g>
</svg>
